<svg width="1240" height="544" viewBox="0 0 1240 544" class="keymap" xmlns="http://www.w3.org/2000/svg" xmlns:xlink="http://www.w3.org/1999/xlink">
<defs>/* start glyphs */
<svg id="mdi:star-four-points">
<svg xmlns="http://www.w3.org/2000/svg" id="mdi-star-four-points" viewBox="0 0 24 24"><path d="M12,1L9,9L1,12L9,15L12,23L15,15L23,12L15,9L12,1Z" /></svg>
</svg>
</defs>/* end glyphs */
<style>/* inherit to force styles through use tags */
svg path {
    fill: inherit;
}


/* font and background color specifications */
svg.keymap {
    /* Arena Theme - Sand and Desert */
    --color-bg-primary: #2C1810;     /* Cool sand - background */
    --color-bg-secondary: #3D2317;   /* Darker sand - secondary bg */
    --color-text-primary: #F4E4BC;   /* Warm sand - main text */
    --color-text-secondary: #E8C088; /* Warmer, lighter - hold text */
    --color-accent: #E6A756;         /* Golden sand - accent */
    --color-key-bg: #5D4037;         /* Rich earth - key background */
    --color-key-border: #A68B5B;     /* Subdued golden - borders */
    --color-key-text: #F4E4BC;       /* Warm sand - key text */

    font-family: 'JetBrains Mono', 'Fira Code', monospace;
    font-size: 22px;
    font-kerning: normal;
    text-rendering: optimizeLegibility;
    fill: var(--color-text-primary);
    background-color: var(--color-bg-primary);
}

rect,
path {
    shape-rendering: geometricPrecision;
}

text {
    text-anchor: middle;
    dominant-baseline: middle;
    line-height: 1;
}

/* Layer labels - show them with custom styling */
text.label {
    display: block;
    fill: var(--color-text-primary);
    font-size: 18px;
    font-weight: 600;
    text-anchor: start;
    transform: translateX(15px);
}

/* Keys */
rect.key {
    fill: var(--color-key-bg);
    stroke: var(--color-key-border);
    stroke-width: 1.5;
    rx: 8;
    ry: 8;
}

.tap {
    fill: var(--color-key-text);
    font-size: 20px;
    font-weight: 500;
}

.hold {
    fill: var(--color-text-secondary);
    opacity: 0.8;
    font-size: 15px;
}

/* styling for combo tap, and key hold/shifted label text */
text.combo {
    font-size: 13px;
}

text.hold, text.shifted {
    font-size: 15px;
}

text.hold {
    text-anchor: middle;
    dominant-baseline: auto;
    transform: translateY(-6px);
}

text.shifted {
    transform: translateY(8px);
    font-size: 18px !important;
}

/* Magic key hold position adjustment */
.key.keypos-48 text.hold {
    transform: translateY(-3px);
}

/* Space key hold position adjustment */
.key.keypos-49 text.hold {
    transform: translateY(-6px);
}

/* Combos */
rect.combo, rect.combo-separate {
    fill: var(--color-bg-secondary);
    stroke: var(--color-key-border);
    stroke-width: 1.5;
}

path.combo {
    stroke-width: 2;
    stroke: #B8860B;
    stroke-dasharray: 3, 3;
    fill: none;
    opacity: 0.8;
}

rect.combo, rect.combo-separate {
    stroke: #B8860B;
}

.combo.tap {
    font-size: 13px;
    text-anchor: middle;
    dominant-baseline: middle;
}

/* Move rotated combo text down 2px */
.combopos-1 text.combo.tap,
.combopos-2 text.combo.tap,
.combopos-3 text.combo.tap {
    transform: translateY(2px);
}

/* Special key styling - make empty keys less prominent */
/* Base layer empty keys - all positions with " " values */
.layer-Base .keypos-0, .layer-Base .keypos-1, .layer-Base .keypos-2, .layer-Base .keypos-3,
.layer-Base .keypos-4, .layer-Base .keypos-5, .layer-Base .keypos-6, .layer-Base .keypos-7,
.layer-Base .keypos-8, .layer-Base .keypos-9, .layer-Base .keypos-10, .layer-Base .keypos-11,
.layer-Base .keypos-12, .layer-Base .keypos-23, .layer-Base .keypos-24, .layer-Base .keypos-35,
.layer-Base .keypos-36, .layer-Base .keypos-47 {
    opacity: 0.35;
}

/* Highlight important keys */
.key:has(text[class*="QU"]),
.key:has(text[class*="BSP"]),
.key:has(text[class*="SP"]),
.key:has(text[class*="OSS"]) {
    rect {
        stroke: var(--color-accent);
        stroke-width: 2;
    }
}



/* Arrow symbols are single characters so they get 22px (2px larger) */
.layer-NUM .keypos-15 text.tap, /* ↑ in NUM */
.layer-NUM .keypos-26 text.tap, /* ← in NUM */
.layer-NUM .keypos-27 text.tap, /* ↓ in NUM */
.layer-NUM .keypos-28 text.tap, /* → in NUM */
.layer-NAV .keypos-20 text.tap, /* ↑ in NAV */
.layer-NAV .keypos-31 text.tap, /* ← in NAV */
.layer-NAV .keypos-32 text.tap, /* ↓ in NAV */
.layer-NAV .keypos-33 text.tap  /* → in NAV */ {
    font-size: 22px !important;
}

/* Numpad styling - Subdued Cool Blue theme */
.layer-NUM .keypos-7 rect,  /* 7 */
.layer-NUM .keypos-8 rect,  /* 8 */
.layer-NUM .keypos-9 rect,  /* 9 */
.layer-NUM .keypos-19 rect, /* 4 */
.layer-NUM .keypos-20 rect, /* 5 */
.layer-NUM .keypos-21 rect, /* 6 */
.layer-NUM .keypos-31 rect, /* 1 */
.layer-NUM .keypos-32 rect, /* 2 */
.layer-NUM .keypos-33 rect, /* 3 */
.layer-NUM .keypos-43 rect, /* 0 */
.layer-NUM .keypos-45 rect  /* . */ {
    fill: #3A4D5C;
    stroke: #6BA3D6;
    stroke-width: 2px;
}

.layer-NUM .keypos-7 text.tap,  /* 7 */
.layer-NUM .keypos-8 text.tap,  /* 8 */
.layer-NUM .keypos-9 text.tap,  /* 9 */
.layer-NUM .keypos-19 text.tap, /* 4 */
.layer-NUM .keypos-20 text.tap, /* 5 */
.layer-NUM .keypos-21 text.tap, /* 6 */
.layer-NUM .keypos-31 text.tap, /* 1 */
.layer-NUM .keypos-32 text.tap, /* 2 */
.layer-NUM .keypos-33 text.tap, /* 3 */
.layer-NUM .keypos-43 text.tap, /* 0 */
.layer-NUM .keypos-45 text.tap  /* . */ {
    font-size: 20px;
    font-weight: 700;
    fill: #E0EDF7;
}

/* LOC key styling - security/lock indicator */
.layer-NUM .keypos-11 rect,  /* LOC in NUM */
.layer-NAV .keypos-11 rect   /* LOC in NAV */ {
    fill: #4A2317;
    stroke: #CC7722;
    stroke-width: 2px;
}

/* GROUP 2: Multi-character function keys - 17px */
/* Base layer Group 2 keys */
.layer-Base .keypos-0 text.tap,   /* ESC */
.layer-Base .keypos-12 text.tap,  /* TAB */
.layer-Base .keypos-18 text.tap,  /* BSP */
.layer-Base .keypos-6 text.tap,   /* DEL */
.layer-Base .keypos-5 text.tap,   /* DEL */
.layer-Base .keypos-51 text.tap,  /* OSS */
.layer-Base .keypos-23 text.tap,  /* CW/CL */

/* SYM layer Group 2 keys */
.layer-SYM .keypos-14 text.tap,   /* ACU */
.layer-SYM .keypos-15 text.tap,   /* GRA */
.layer-SYM .keypos-16 text.tap,   /* DIA */
.layer-SYM .keypos-27 text.tap,   /* HÁČ */
.layer-SYM .keypos-28 text.tap,   /* «QUO» */
.layer-SYM .keypos-18 text.tap,   /* ANG */
.layer-SYM .keypos-19 text.tap,   /* {PAR} */
.layer-SYM .keypos-30 text.tap,   /* [PAR] */
.layer-SYM .keypos-31 text.tap,   /* (PAR) */

/* NUM layer Group 2 keys */
.layer-NUM .keypos-6 text.tap,    /* DEL */
.layer-NUM .keypos-18 text.tap,   /* BSP */
.layer-NUM .keypos-50 text.tap,   /* ENT */
.layer-NUM .keypos-51 text.tap,   /* TAB */

/* NAV layer Group 2 keys */
.layer-NAV .keypos-5 text.tap,    /* PRT SCR */
.layer-NAV .keypos-6 text.tap,    /* DEL FW */
.layer-NAV .keypos-8 text.tap,    /* SEL LN */
.layer-NAV .keypos-15 text.tap,   /* SEL ALL */
.layer-NAV .keypos-16 text.tap,   /* UNDO */
.layer-NAV .keypos-17 text.tap,   /* REDO */
.layer-NAV .keypos-18 text.tap,   /* DEL BW */
.layer-NAV .keypos-19 text.tap,   /* BW */
.layer-NAV .keypos-21 text.tap,   /* FW */
.layer-NAV .keypos-26 text.tap,   /* CUT */
.layer-NAV .keypos-27 text.tap,   /* COPY */
.layer-NAV .keypos-28 text.tap,   /* PASTE */
.layer-NAV .keypos-29 text.tap,   /* TAB */
.layer-NAV .keypos-30 text.tap,   /* SEL BW */
.layer-NAV .keypos-34 text.tap,   /* SEL FW */
.layer-NAV .keypos-41 text.tap    /* LAST TAB */ {
    font-size: 17px;
}

/* LOC keys - special styling but same Group 2 font size */
.layer-NUM .keypos-11 text.tap,  /* LOC in NUM */
.layer-NAV .keypos-11 text.tap   /* LOC in NAV */ {
    font-size: 17px;
    fill: #FFFFFF;
}

/* GROUP 4: Arrow symbols - 23px */
.layer-NUM .keypos-15 text.tap, /* ↑ in NUM */
.layer-NUM .keypos-26 text.tap, /* ← in NUM */
.layer-NUM .keypos-27 text.tap, /* ↓ in NUM */
.layer-NUM .keypos-28 text.tap, /* → in NUM */
.layer-NAV .keypos-20 text.tap, /* ↑ in NAV */
.layer-NAV .keypos-31 text.tap, /* ← in NAV */
.layer-NAV .keypos-32 text.tap, /* ↓ in NAV */
.layer-NAV .keypos-33 text.tap  /* → in NAV */ {
    font-size: 23px !important;
}

/* GROUP 5: Numpad numbers and period - 20px, bold */
.layer-NUM .keypos-7 text.tap,  /* 7 */
.layer-NUM .keypos-8 text.tap,  /* 8 */
.layer-NUM .keypos-9 text.tap,  /* 9 */
.layer-NUM .keypos-19 text.tap, /* 4 */
.layer-NUM .keypos-20 text.tap, /* 5 */
.layer-NUM .keypos-21 text.tap, /* 6 */
.layer-NUM .keypos-31 text.tap, /* 1 */
.layer-NUM .keypos-32 text.tap, /* 2 */
.layer-NUM .keypos-33 text.tap, /* 3 */
.layer-NUM .keypos-43 text.tap, /* 0 */
.layer-NUM .keypos-45 text.tap  /* . */ {
    font-size: 20px;
    font-weight: 700;
    fill: #E0EDF7;
}

/* GROUP 6: Hold text - 15px */
text.hold {
    font-size: 15px;
}
</style>
<g transform="translate(0, 0)" class="layer-Base">

<g transform="translate(0, 0)">
<g transform="translate(40, 72)" class="key keypos-0">
<rect rx="6" ry="6" x="-38" y="-38" width="75" height="75" class="key"/>
</g>
<g transform="translate(120, 72)" class="key keypos-1">
<rect rx="6" ry="6" x="-38" y="-38" width="75" height="75" class="key"/>
</g>
<g transform="translate(200, 56)" class="key keypos-2">
<rect rx="6" ry="6" x="-38" y="-38" width="75" height="75" class="key"/>
</g>
<g transform="translate(280, 40)" class="key keypos-3">
<rect rx="6" ry="6" x="-38" y="-38" width="75" height="75" class="key"/>
</g>
<g transform="translate(360, 64)" class="key keypos-4">
<rect rx="6" ry="6" x="-38" y="-38" width="75" height="75" class="key"/>
</g>
<g transform="translate(440, 80)" class="key keypos-5">
<rect rx="6" ry="6" x="-38" y="-38" width="75" height="75" class="key"/>
</g>
<g transform="translate(800, 80)" class="key keypos-6">
<rect rx="6" ry="6" x="-38" y="-38" width="75" height="75" class="key"/>
</g>
<g transform="translate(880, 64)" class="key keypos-7">
<rect rx="6" ry="6" x="-38" y="-38" width="75" height="75" class="key"/>
</g>
<g transform="translate(960, 40)" class="key keypos-8">
<rect rx="6" ry="6" x="-38" y="-38" width="75" height="75" class="key"/>
</g>
<g transform="translate(1040, 56)" class="key keypos-9">
<rect rx="6" ry="6" x="-38" y="-38" width="75" height="75" class="key"/>
</g>
<g transform="translate(1120, 72)" class="key keypos-10">
<rect rx="6" ry="6" x="-38" y="-38" width="75" height="75" class="key"/>
</g>
<g transform="translate(1200, 72)" class="key keypos-11">
<rect rx="6" ry="6" x="-38" y="-38" width="75" height="75" class="key"/>
</g>
<g transform="translate(40, 152)" class="key keypos-12">
<rect rx="6" ry="6" x="-38" y="-38" width="75" height="75" class="key"/>
</g>
<g transform="translate(120, 152)" class="key keypos-13">
<rect rx="6" ry="6" x="-38" y="-38" width="75" height="75" class="key"/>
<text x="0" y="0" class="key tap">X</text>
</g>
<g transform="translate(200, 136)" class="key keypos-14">
<rect rx="6" ry="6" x="-38" y="-38" width="75" height="75" class="key"/>
<text x="0" y="0" class="key tap">G</text>
</g>
<g transform="translate(280, 120)" class="key keypos-15">
<rect rx="6" ry="6" x="-38" y="-38" width="75" height="75" class="key"/>
<text x="0" y="0" class="key tap">R</text>
</g>
<g transform="translate(360, 144)" class="key keypos-16">
<rect rx="6" ry="6" x="-38" y="-38" width="75" height="75" class="key"/>
<text x="0" y="0" class="key tap">H</text>
</g>
<g transform="translate(440, 160)" class="key keypos-17">
<rect rx="6" ry="6" x="-38" y="-38" width="75" height="75" class="key"/>
<text x="0" y="0" class="key tap">V</text>
</g>
<g transform="translate(800, 160)" class="key keypos-18">
<rect rx="6" ry="6" x="-38" y="-38" width="75" height="75" class="key"/>
<text x="0" y="0" class="key tap">BSP</text>
</g>
<g transform="translate(880, 144)" class="key keypos-19">
<rect rx="6" ry="6" x="-38" y="-38" width="75" height="75" class="key"/>
<text x="0" y="0" class="key tap">U</text>
</g>
<g transform="translate(960, 120)" class="key keypos-20">
<rect rx="6" ry="6" x="-38" y="-38" width="75" height="75" class="key"/>
<text x="0" y="0" class="key tap">O</text>
</g>
<g transform="translate(1040, 136)" class="key keypos-21">
<rect rx="6" ry="6" x="-38" y="-38" width="75" height="75" class="key"/>
<text x="0" y="0" class="key tap">,</text>
</g>
<g transform="translate(1120, 152)" class="key keypos-22">
<rect rx="6" ry="6" x="-38" y="-38" width="75" height="75" class="key"/>
<text x="0" y="0" class="key tap">QU</text>
</g>
<g transform="translate(1200, 152)" class="key keypos-23">
<rect rx="6" ry="6" x="-38" y="-38" width="75" height="75" class="key"/>
</g>
<g transform="translate(40, 232)" class="key keypos-24">
<rect rx="6" ry="6" x="-38" y="-38" width="75" height="75" class="key"/>
</g>
<g transform="translate(120, 232)" class="key keypos-25">
<rect rx="6" ry="6" x="-38" y="-38" width="75" height="75" class="key"/>
<text x="0" y="0" class="key tap">L</text>
</g>
<g transform="translate(200, 216)" class="key keypos-26">
<rect rx="6" ry="6" x="-38" y="-38" width="75" height="75" class="key"/>
<text x="0" y="0" class="key tap">S</text>
</g>
<g transform="translate(280, 200)" class="key keypos-27">
<rect rx="6" ry="6" x="-38" y="-38" width="75" height="75" class="key"/>
<text x="0" y="0" class="key tap">N</text>
</g>
<g transform="translate(360, 224)" class="key keypos-28">
<rect rx="6" ry="6" x="-38" y="-38" width="75" height="75" class="key"/>
<text x="0" y="0" class="key tap">D</text>
</g>
<g transform="translate(440, 240)" class="key keypos-29">
<rect rx="6" ry="6" x="-38" y="-38" width="75" height="75" class="key"/>
<text x="0" y="0" class="key tap">P</text>
</g>
<g transform="translate(800, 240)" class="key keypos-30">
<rect rx="6" ry="6" x="-38" y="-38" width="75" height="75" class="key"/>
<text x="0" y="0" class="key tap">K</text>
</g>
<g transform="translate(880, 224)" class="key keypos-31">
<rect rx="6" ry="6" x="-38" y="-38" width="75" height="75" class="key"/>
<text x="0" y="0" class="key tap">I</text>
</g>
<g transform="translate(960, 200)" class="key keypos-32">
<rect rx="6" ry="6" x="-38" y="-38" width="75" height="75" class="key"/>
<text x="0" y="0" class="key tap">E</text>
</g>
<g transform="translate(1040, 216)" class="key keypos-33">
<rect rx="6" ry="6" x="-38" y="-38" width="75" height="75" class="key"/>
<text x="0" y="0" class="key tap">A</text>
</g>
<g transform="translate(1120, 232)" class="key keypos-34">
<rect rx="6" ry="6" x="-38" y="-38" width="75" height="75" class="key"/>
<text x="0" y="0" class="key tap">C</text>
</g>
<g transform="translate(1200, 232)" class="key keypos-35">
<rect rx="6" ry="6" x="-38" y="-38" width="75" height="75" class="key"/>
</g>
<g transform="translate(40, 312)" class="key keypos-36">
<rect rx="6" ry="6" x="-38" y="-38" width="75" height="75" class="key"/>
</g>
<g transform="translate(120, 312)" class="key keypos-37">
<rect rx="6" ry="6" x="-38" y="-38" width="75" height="75" class="key"/>
<text x="0" y="0" class="key tap">W</text>
</g>
<g transform="translate(200, 296)" class="key keypos-38">
<rect rx="6" ry="6" x="-38" y="-38" width="75" height="75" class="key"/>
<text x="0" y="0" class="key tap">Z</text>
</g>
<g transform="translate(280, 280)" class="key keypos-39">
<rect rx="6" ry="6" x="-38" y="-38" width="75" height="75" class="key"/>
<text x="0" y="0" class="key tap">M</text>
</g>
<g transform="translate(360, 304)" class="key keypos-40">
<rect rx="6" ry="6" x="-38" y="-38" width="75" height="75" class="key"/>
<text x="0" y="0" class="key tap">F</text>
</g>
<g transform="translate(440, 320)" class="key keypos-41">
<rect rx="6" ry="6" x="-38" y="-38" width="75" height="75" class="key"/>
<text x="0" y="0" class="key tap">B</text>
</g>
<g transform="translate(800, 320)" class="key keypos-42">
<rect rx="6" ry="6" x="-38" y="-38" width="75" height="75" class="key"/>
<text x="0" y="0" class="key tap">J</text>
</g>
<g transform="translate(880, 304)" class="key keypos-43">
<rect rx="6" ry="6" x="-38" y="-38" width="75" height="75" class="key"/>
<text x="0" y="0" class="key tap">Y</text>
</g>
<g transform="translate(960, 280)" class="key keypos-44">
<rect rx="6" ry="6" x="-38" y="-38" width="75" height="75" class="key"/>
<text x="0" y="0" class="key tap">&#x27;</text>
</g>
<g transform="translate(1040, 296)" class="key keypos-45">
<rect rx="6" ry="6" x="-38" y="-38" width="75" height="75" class="key"/>
<text x="0" y="0" class="key tap">.</text>
</g>
<g transform="translate(1120, 312)" class="key keypos-46">
<rect rx="6" ry="6" x="-38" y="-38" width="75" height="75" class="key"/>
<text x="0" y="0" class="key tap">-</text>
</g>
<g transform="translate(1200, 312)" class="key keypos-47">
<rect rx="6" ry="6" x="-38" y="-38" width="75" height="75" class="key"/>
</g>
<g transform="translate(442, 415) rotate(30.0)" class="key keypos-48">
<rect rx="6" ry="6" x="-38" y="-38" width="75" height="75" class="key"/>
<use href="#mdi:star-four-points" xlink:href="#mdi:star-four-points" x="-10" y="-10" height="20" width="20.0" class="key tap glyph mdi:star-four-points"/>
</g>
<g transform="translate(498, 476) rotate(30.0)" class="key keypos-49">
<rect rx="6" ry="6" x="-38" y="-54" width="75" height="107" class="key"/>
<text x="0" y="0" class="key tap">SP</text>
</g>
<g transform="translate(742, 476) rotate(-30.0)" class="key keypos-50">
<rect rx="6" ry="6" x="-38" y="-54" width="75" height="107" class="key"/>
<text x="0" y="0" class="key tap">T</text>
</g>
<g transform="translate(798, 415) rotate(-30.0)" class="key keypos-51">
<rect rx="6" ry="6" x="-38" y="-38" width="75" height="75" class="key"/>
<text x="0" y="0" class="key tap">OSS</text>
</g>
</g>
</g>
</svg>
